<svg width="24" height="24" viewBox="0 0 24 24" fill="none" xmlns="http://www.w3.org/2000/svg">
<rect width="24" height="24" rx="5.33333" fill="white"/>
<g clip-path="url(#clip0_1_507)">
<path fill-rule="evenodd" clip-rule="evenodd" d="M9.01672 10.108C8.85696 10.2677 8.59794 10.2677 8.43818 10.108C8.27842 9.94822 8.27842 9.6892 8.43818 9.52944L11.7109 6.25671L12.0002 5.96744L12.2894 6.25671C12.2895 6.25678 12.2896 6.25685 12.2897 6.25693L15.5622 9.52944C15.7219 9.6892 15.7219 9.94822 15.5622 10.108C15.4024 10.2677 15.1434 10.2677 14.9836 10.108L12.4093 7.53361L12.4093 14.1823C12.4093 14.4083 12.2261 14.5914 12.0002 14.5914C11.7742 14.5914 11.5911 14.4083 11.5911 14.1823L11.5911 7.53361L9.01672 10.108Z" fill="#031138"/>
<path d="M6.81836 13.6369V13.9642C6.81836 15.1861 6.81836 15.7971 7.05616 16.2638C7.26534 16.6743 7.59912 17.0081 8.00965 17.2173C8.47637 17.4551 9.08734 17.4551 10.3093 17.4551H13.6911C14.913 17.4551 15.524 17.4551 15.9907 17.2173C16.4012 17.0081 16.735 16.6743 16.9442 16.2638C17.182 15.7971 17.182 15.1861 17.182 13.9642V13.6369" stroke="#031138" stroke-width="1.09091" stroke-linecap="round"/>
</g>
<defs>
<clipPath id="clip0_1_507">
<rect width="13.0909" height="13.0909" fill="white" transform="translate(5.45471 5.45508)"/>
</clipPath>
</defs>
</svg>
