<svg width="32" height="32" viewBox="0 0 32 32" fill="none" xmlns="http://www.w3.org/2000/svg">
<path d="M7.21867 16L3.62667 19.5933L0 16L3.62533 12.3747L7.21867 16ZM16 7.21867L22.1867 13.4053L25.8133 9.78133L16 0L6.18667 9.81333L9.81333 13.4373L16 7.21867ZM28.3747 12.3747L24.7813 16L28.4067 19.6253L32.0307 16L28.3747 12.3747ZM16 24.7813L9.81333 18.5627L6.18667 22.188L16 32L25.8133 22.1867L22.1867 18.5627L16 24.7813ZM16 19.5947L19.6253 15.968L16 12.376L12.3747 16L16 19.5933V19.5947ZM54.1253 19.968V19.9067C54.1253 17.5627 52.8747 16.3747 50.844 15.5933C52.0933 14.9067 53.156 13.78 53.156 11.812V11.7507C53.156 9 50.9373 7.21867 47.3747 7.21867H39.2187V24.7507H47.5627C51.5307 24.7813 54.1253 23.156 54.1253 19.9693V19.968ZM49.312 12.4693C49.312 13.7813 48.2493 14.312 46.5307 14.312H42.9693V10.5933H46.7813C48.4067 10.5933 49.312 11.2493 49.312 12.4067V12.4693ZM50.2813 19.4693C50.2813 20.7813 49.2507 21.376 47.5613 21.376H42.9693V17.5307H47.4373C49.4067 17.5307 50.2813 18.2507 50.2813 19.4373V19.4693ZM62.2187 24.7813V7.21867H58.344V24.7507H62.2187V24.7813ZM82.9693 24.7813V7.21867H79.156V18.032L70.9373 7.21867H67.3747V24.7507H71.188V13.6253L79.688 24.7813H82.968H82.9693ZM104.343 24.7813L96.8133 7.12533H93.252L85.72 24.7813H89.6893L91.2827 20.844H98.6893L100.283 24.7813H104.345H104.343ZM97.312 17.4373H92.656L95 11.7507L97.312 17.4373ZM122.751 24.7813V7.21867H118.937V18.032L110.719 7.21867H107.156V24.7507H110.969V13.6253L119.469 24.7813H122.749H122.751ZM142.656 21.9373L140.188 19.4693C138.812 20.7187 137.593 21.5307 135.563 21.5307C132.563 21.5307 130.469 19.0307 130.469 16.0307V15.9373C130.469 12.9373 132.593 10.4693 135.563 10.4693C137.312 10.4693 138.688 11.2187 140.063 12.4373L142.531 9.59333C140.907 8 138.937 6.87467 135.625 6.87467C130.251 6.87467 126.469 10.968 126.469 15.9373V16C126.469 21.0307 130.312 25.0307 135.469 25.0307C138.844 25.0627 140.844 23.8747 142.656 21.9373ZM159.125 24.7813V21.344H149.593V17.656H157.875V14.2187H149.593V10.656H159V7.21867H145.781V24.7507H159.125V24.7813Z" fill="#F0B90B"/>
</svg>
