 <svg
        width="199"
        height="32"
        viewBox="0 0 199 32"
        fill="none"
        xmlns="http://www.w3.org/2000/svg"
      >
        <path
          d="M14.5717 7.18492C10.6002 11.1439 5.95151 15.7443 4.24944 17.4122C2.56566 19.0617 1.06491 20.6746 0.936797 20.9679C0.552457 21.866 0.790382 22.4158 2.12642 23.6988C4.26774 25.7882 3.02321 26.668 15.2672 14.4063C27.4745 2.18127 26.5594 3.48259 24.3998 1.31984C22.2768 -0.806255 23.1004 -1.30112 14.5717 7.18492Z"
          fill="#031138"
        />
        <path
          d="M24.0503 11.6569C22.7875 12.8483 22.3482 13.673 22.6044 14.3145C22.696 14.5528 25.6792 17.6503 29.248 21.1877C34.4092 26.3563 35.8367 27.6759 36.3126 27.7676C36.8799 27.8775 37.008 27.8042 38.3624 26.4296C39.5154 25.2749 39.8265 24.8717 39.8265 24.4501C39.8265 23.9919 38.8565 22.9472 33.2012 17.2654C26.7773 10.8321 26.5393 10.6122 25.8622 10.6122C25.2582 10.6122 25.002 10.7588 24.0503 11.6569Z"
          fill="#031138"
        />
        <path
          d="M12.979 22.7632C8.01918 27.7302 7.79956 27.9684 7.79956 28.6283C7.79956 29.2331 7.94598 29.4897 8.86107 30.4428C10.0873 31.7441 10.7645 32.129 11.4416 31.964C11.7162 31.8907 13.3084 30.4611 15.3399 28.445C17.8839 25.9157 18.8173 25.0909 19.0186 25.2192C19.165 25.2925 20.5377 26.5755 22.0384 28.0601C25.2047 31.1576 25.5341 31.4142 26.2296 31.2492C26.8518 31.0843 29.1396 28.8665 29.286 28.28C29.3592 28.0234 29.286 27.6202 29.1396 27.327C28.9931 27.052 26.7786 24.7427 24.2346 22.195C19.7324 17.7229 19.5677 17.5763 18.8722 17.5763C18.1767 17.5763 17.9937 17.7229 12.979 22.7632Z"
          fill="#031138"
        />
        <path
          d="M53.1804 28V4.72727H57.3963V24.4659H67.6463V28H53.1804ZM69.8436 28V10.5455H73.9572V28H69.8436ZM71.9118 8.06818C71.2603 8.06818 70.6996 7.85227 70.2299 7.42045C69.7603 6.98106 69.5254 6.45454 69.5254 5.84091C69.5254 5.2197 69.7603 4.69318 70.2299 4.26136C70.6996 3.82197 71.2603 3.60227 71.9118 3.60227C72.5709 3.60227 73.1315 3.82197 73.5936 4.26136C74.0633 4.69318 74.2981 5.2197 74.2981 5.84091C74.2981 6.45454 74.0633 6.98106 73.5936 7.42045C73.1315 7.85227 72.5709 8.06818 71.9118 8.06818ZM85.6232 10.5455V13.7273H75.5892V10.5455H85.6232ZM78.0664 6.36364H82.1801V22.75C82.1801 23.303 82.2634 23.7273 82.4301 24.0227C82.6043 24.3106 82.8316 24.5076 83.1119 24.6136C83.3922 24.7197 83.7028 24.7727 84.0437 24.7727C84.3013 24.7727 84.5361 24.7538 84.7482 24.7159C84.9679 24.678 85.1346 24.6439 85.2482 24.6136L85.9414 27.8295C85.7217 27.9053 85.4073 27.9886 84.9982 28.0795C84.5967 28.1705 84.1043 28.2235 83.521 28.2386C82.4907 28.2689 81.5626 28.1136 80.7369 27.7727C79.9111 27.4242 79.2558 26.8864 78.771 26.1591C78.2937 25.4318 78.0589 24.5227 78.0664 23.4318V6.36364ZM95.3234 28.3409C93.5734 28.3409 92.062 27.9773 90.7893 27.25C89.5241 26.5152 88.5506 25.4773 87.8688 24.1364C87.187 22.7879 86.8461 21.2008 86.8461 19.375C86.8461 17.5795 87.187 16.0038 87.8688 14.6477C88.5582 13.2841 89.5203 12.2235 90.7552 11.4659C91.99 10.7008 93.4408 10.3182 95.1074 10.3182C96.1832 10.3182 97.1984 10.4924 98.1529 10.8409C99.115 11.1818 99.9635 11.7121 100.698 12.4318C101.441 13.1515 102.024 14.0682 102.448 15.1818C102.873 16.2879 103.085 17.6061 103.085 19.1364V20.3977H88.7779V17.625H99.1415C99.134 16.8371 98.9635 16.1364 98.6302 15.5227C98.2968 14.9015 97.8309 14.4129 97.2324 14.0568C96.6415 13.7008 95.9521 13.5227 95.1643 13.5227C94.3234 13.5227 93.5847 13.7273 92.9484 14.1364C92.312 14.5379 91.8158 15.0682 91.4597 15.7273C91.1112 16.3788 90.9332 17.0947 90.9256 17.875V20.2955C90.9256 21.3106 91.1112 22.1818 91.4824 22.9091C91.8537 23.6288 92.3726 24.1818 93.0393 24.5682C93.7059 24.947 94.4862 25.1364 95.3802 25.1364C95.9787 25.1364 96.5203 25.053 97.0052 24.8864C97.49 24.7121 97.9105 24.4583 98.2665 24.125C98.6226 23.7917 98.8915 23.3788 99.0734 22.8864L102.914 23.3182C102.672 24.3333 102.21 25.2197 101.528 25.9773C100.854 26.7273 99.99 27.3106 98.937 27.7273C97.884 28.1364 96.6794 28.3409 95.3234 28.3409ZM116.34 4.72727V28H112.124V4.72727H116.34ZM123.557 17.7727V28H119.444V10.5455H123.375V13.5114H123.58C123.981 12.5341 124.622 11.7576 125.5 11.1818C126.387 10.6061 127.481 10.3182 128.784 10.3182C129.989 10.3182 131.038 10.5758 131.932 11.0909C132.834 11.6061 133.531 12.3523 134.023 13.3295C134.523 14.3068 134.769 15.4924 134.762 16.8864V28H130.648V17.5227C130.648 16.3561 130.345 15.4432 129.739 14.7841C129.141 14.125 128.311 13.7955 127.25 13.7955C126.531 13.7955 125.891 13.9545 125.33 14.2727C124.777 14.5833 124.341 15.0341 124.023 15.625C123.713 16.2159 123.557 16.9318 123.557 17.7727ZM152.629 10.5455L146.414 28H141.868L135.652 10.5455H140.039L144.05 23.5114H144.232L148.254 10.5455H152.629ZM161.33 28.3409C159.58 28.3409 158.068 27.9773 156.796 27.25C155.53 26.5152 154.557 25.4773 153.875 24.1364C153.193 22.7879 152.852 21.2008 152.852 19.375C152.852 17.5795 153.193 16.0038 153.875 14.6477C154.564 13.2841 155.527 12.2235 156.761 11.4659C157.996 10.7008 159.447 10.3182 161.114 10.3182C162.189 10.3182 163.205 10.4924 164.159 10.8409C165.121 11.1818 165.97 11.7121 166.705 12.4318C167.447 13.1515 168.03 14.0682 168.455 15.1818C168.879 16.2879 169.091 17.6061 169.091 19.1364V20.3977H154.784V17.625H165.148C165.14 16.8371 164.97 16.1364 164.636 15.5227C164.303 14.9015 163.837 14.4129 163.239 14.0568C162.648 13.7008 161.958 13.5227 161.171 13.5227C160.33 13.5227 159.591 13.7273 158.955 14.1364C158.318 14.5379 157.822 15.0682 157.466 15.7273C157.117 16.3788 156.939 17.0947 156.932 17.875V20.2955C156.932 21.3106 157.117 22.1818 157.489 22.9091C157.86 23.6288 158.379 24.1818 159.046 24.5682C159.712 24.947 160.492 25.1364 161.386 25.1364C161.985 25.1364 162.527 25.053 163.011 24.8864C163.496 24.7121 163.917 24.4583 164.273 24.125C164.629 23.7917 164.898 23.3788 165.08 22.8864L168.921 23.3182C168.678 24.3333 168.216 25.2197 167.534 25.9773C166.86 26.7273 165.996 27.3106 164.943 27.7273C163.89 28.1364 162.686 28.3409 161.33 28.3409ZM185.087 15.1591L181.337 15.5682C181.23 15.1894 181.045 14.8333 180.78 14.5C180.522 14.1667 180.174 13.8977 179.734 13.6932C179.295 13.4886 178.757 13.3864 178.121 13.3864C177.265 13.3864 176.545 13.572 175.962 13.9432C175.386 14.3144 175.102 14.7955 175.109 15.3864C175.102 15.8939 175.287 16.3068 175.666 16.625C176.052 16.9432 176.689 17.2045 177.575 17.4091L180.552 18.0455C182.204 18.4015 183.431 18.9659 184.234 19.7386C185.045 20.5114 185.454 21.5227 185.462 22.7727C185.454 23.8712 185.132 24.8409 184.496 25.6818C183.867 26.5152 182.992 27.1667 181.871 27.6364C180.749 28.1061 179.462 28.3409 178.007 28.3409C175.871 28.3409 174.151 27.8939 172.848 27C171.545 26.0985 170.768 24.8447 170.518 23.2386L174.53 22.8523C174.712 23.6402 175.098 24.2348 175.689 24.6364C176.28 25.0379 177.049 25.2386 177.996 25.2386C178.973 25.2386 179.757 25.0379 180.348 24.6364C180.946 24.2348 181.246 23.7386 181.246 23.1477C181.246 22.6477 181.052 22.2348 180.666 21.9091C180.287 21.5833 179.696 21.3333 178.893 21.1591L175.916 20.5341C174.242 20.1856 173.003 19.5985 172.2 18.7727C171.397 17.9394 170.999 16.8864 171.007 15.6136C170.999 14.5379 171.291 13.6061 171.882 12.8182C172.48 12.0227 173.31 11.4091 174.371 10.9773C175.439 10.5379 176.67 10.3182 178.064 10.3182C180.109 10.3182 181.719 10.7538 182.893 11.625C184.075 12.4962 184.806 13.6742 185.087 15.1591ZM196.289 10.5455V13.7273H186.255V10.5455H196.289ZM188.733 6.36364H192.846V22.75C192.846 23.303 192.93 23.7273 193.096 24.0227C193.271 24.3106 193.498 24.5076 193.778 24.6136C194.058 24.7197 194.369 24.7727 194.71 24.7727C194.968 24.7727 195.202 24.7538 195.414 24.7159C195.634 24.678 195.801 24.6439 195.914 24.6136L196.608 27.8295C196.388 27.9053 196.074 27.9886 195.664 28.0795C195.263 28.1705 194.771 28.2235 194.187 28.2386C193.157 28.2689 192.229 28.1136 191.403 27.7727C190.577 27.4242 189.922 26.8864 189.437 26.1591C188.96 25.4318 188.725 24.5227 188.733 23.4318V6.36364Z"
          fill="#031138"
        />
      </svg>